<?xml version="1.0" standalone="no"?>
<!DOCTYPE svg PUBLIC "-//W3C//DTD SVG 20010904//EN"
 "http://www.w3.org/TR/2001/REC-SVG-20010904/DTD/svg10.dtd">
<svg version="1.0" xmlns="http://www.w3.org/2000/svg"
 width="784.000000pt" height="1168.000000pt" viewBox="0 0 784.000000 1168.000000"
 preserveAspectRatio="xMidYMid meet">

<g transform="translate(0.000000,1168.000000) scale(0.100000,-0.100000)"
fill="#000000" stroke="none">
<path d="M2466 8634 c-660 -103 -1203 -614 -1351 -1272 -45 -197 -46 -253 -42
-1612 4 -1426 -1 -1322 72 -1566 64 -211 198 -450 342 -611 76 -85 220 -211
318 -278 146 -99 384 -198 575 -238 167 -36 224 -37 1548 -37 1440 0 1390 -2
1619 59 296 79 522 209 739 426 146 146 221 250 314 435 62 125 88 193 118
315 48 192 47 150 47 1585 l0 1355 -28 128 c-146 669 -617 1146 -1286 1299
l-96 22 -1400 2 c-1157 2 -1415 0 -1489 -12z m9 -2359 l0 -110 -25 0 c-22 0
-36 16 -54 60 -2 6 -78 -63 -168 -152 -90 -90 -170 -163 -177 -163 -27 0 -72
33 -125 92 l-57 62 -143 -143 c-128 -128 -147 -143 -170 -137 -14 3 -30 15
-36 26 -12 22 16 55 214 257 128 131 132 131 233 31 l73 -73 139 139 139 139
-31 21 c-18 12 -33 32 -35 44 -3 23 -3 23 110 20 l113 -3 0 -110z m1863 -130
c61 -19 106 -54 132 -106 32 -61 28 -69 -33 -69 -49 0 -53 2 -64 29 -15 40
-65 64 -131 63 -86 -1 -137 -51 -112 -113 15 -34 34 -43 158 -73 119 -29 158
-48 190 -97 20 -29 23 -44 20 -100 -4 -81 -33 -125 -105 -160 -69 -33 -197
-34 -268 -1 -76 35 -112 75 -129 145 -6 27 -6 27 48 27 50 0 54 -2 66 -30 40
-97 244 -99 281 -2 23 59 -29 101 -157 126 -92 18 -134 35 -172 70 -68 61 -70
160 -4 229 65 69 175 93 280 62z m-1182 -23 c52 -31 76 -71 77 -133 1 -58 -21
-93 -78 -125 l-38 -22 32 -7 c17 -4 45 -18 63 -33 91 -77 71 -219 -39 -274
-45 -21 -60 -23 -223 -23 l-175 0 -3 323 -2 324 172 -4 c160 -3 176 -5 214
-26z m292 19 c9 -5 12 -24 10 -52 l-3 -44 -55 0 -55 0 -3 47 -3 47 43 4 c24 2
45 4 48 5 3 1 11 -2 18 -7z m-995 -93 c16 -12 17 -44 15 -388 l-3 -375 -67 -3
-68 -3 0 385 c0 298 3 385 13 389 24 10 94 7 110 -5z m1467 -111 c0 -34 -14
-55 -124 -190 l-124 -152 124 -3 124 -3 0 -45 0 -44 -187 2 -186 3 -1 35 c-1
29 9 48 55 105 106 130 189 235 189 240 0 3 -54 5 -120 5 l-120 0 0 46 0 45
185 -3 185 -3 0 -38z m967 32 c50 -19 123 -107 123 -149 0 -5 -22 -10 -50 -10
-45 0 -51 3 -65 30 -43 84 -161 76 -205 -14 -42 -87 -12 -203 63 -239 33 -17
42 -17 80 -5 31 10 46 21 57 45 14 31 18 33 68 33 51 0 53 -1 47 -22 -31 -106
-151 -168 -265 -138 -93 24 -148 85 -170 188 -9 41 -8 63 5 114 29 116 107
178 221 178 34 0 75 -5 91 -11z m496 -2 c90 -38 137 -116 137 -227 0 -84 -17
-131 -68 -183 -36 -36 -107 -67 -157 -67 -40 0 -124 31 -155 57 -124 104 -98
342 45 412 48 24 150 28 198 8z m832 -6 c73 -33 107 -89 120 -193 l7 -58 -170
0 c-94 0 -173 -4 -176 -8 -8 -14 31 -89 55 -106 15 -10 44 -16 77 -16 46 0 58
4 84 30 24 24 38 30 74 30 49 0 50 0 30 -38 -51 -98 -194 -136 -302 -81 -133
68 -164 289 -56 397 21 21 53 43 72 49 55 17 140 15 185 -6z m-2765 -226 l0
-235 -50 0 -50 0 0 235 0 235 50 0 50 0 0 -235z m2420 189 l0 -46 -82 3 c-70
3 -82 1 -80 -11 2 -8 1 -95 -3 -193 l-7 -178 -47 3 -46 3 -3 197 -2 196 37 36
38 36 98 0 97 0 0 -46z m-4075 -99 c31 -30 31 -36 -1 -75 -22 -25 -25 -38 -21
-67 4 -19 8 -38 11 -41 3 -3 26 14 51 37 42 38 75 53 75 32 0 -5 -21 -27 -47
-49 l-47 -40 54 -59 c29 -32 66 -67 81 -78 16 -11 29 -26 29 -34 0 -8 31 19
70 60 47 50 69 82 70 100 0 33 17 49 51 49 57 0 80 -65 34 -96 -14 -9 -32 -13
-45 -9 -17 5 -34 -7 -90 -66 l-69 -73 -3 -65 c-2 -40 -8 -66 -15 -69 -10 -3
-13 16 -13 73 0 88 11 73 -152 213 -76 65 -78 68 -78 113 0 33 -6 51 -20 64
-27 24 -26 70 2 89 31 22 45 20 73 -9z m423 2 c17 -13 15 -52 -4 -71 -8 -9
-29 -16 -47 -16 -26 0 -48 -16 -132 -100 -56 -55 -110 -100 -119 -100 -22 0
-20 13 4 35 16 15 20 31 20 85 0 54 -4 70 -20 85 -38 34 -16 95 35 95 51 0 74
-64 35 -97 -15 -13 -20 -30 -20 -65 0 -27 4 -48 9 -48 20 0 140 140 143 167 5
45 56 61 96 30z m-574 -189 c9 -12 16 -30 16 -40 0 -10 32 -51 70 -92 l70 -73
0 -77 c0 -61 -3 -76 -15 -76 -12 0 -15 15 -15 71 l0 71 -62 69 c-42 48 -68 69
-82 68 -43 -3 -56 2 -71 25 -13 19 -14 28 -4 50 16 35 70 37 93 4z m6 -208
c17 -17 20 -31 18 -83 l-3 -62 -72 -3 -73 -3 0 66 c0 52 4 69 20 85 27 27 83
27 110 0z m578 8 c13 -13 16 -97 6 -136 -6 -21 -11 -23 -73 -20 l-66 3 -3 57
c-3 51 0 61 22 83 28 27 92 35 114 13z"/>
<path d="M2882 5968 l3 -93 40 -3 c69 -6 144 8 171 31 14 13 27 37 31 59 5 32
1 41 -25 68 -30 29 -33 30 -127 30 l-96 0 3 -92z"/>
<path d="M2884 5791 c-2 -2 -4 -49 -4 -103 l0 -98 101 0 c137 0 179 26 179
111 0 42 -47 89 -92 90 -106 4 -180 3 -184 0z"/>
<path d="M5244 5891 c-71 -31 -102 -165 -58 -252 19 -39 57 -59 109 -59 38 0
52 5 75 28 60 61 64 186 6 249 -33 37 -91 51 -132 34z"/>
<path d="M6052 5884 c-25 -17 -65 -88 -55 -98 10 -10 231 -7 238 4 10 16 -32
85 -60 98 -36 17 -96 15 -123 -4z"/>
<path d="M1734 5799 c-8 -14 21 -43 35 -35 6 4 11 16 11 27 0 21 -34 27 -46 8z"/>
<path d="M2152 5608 c2 -15 10 -23 23 -23 30 0 27 39 -3 43 -20 3 -23 0 -20
-20z"/>
<path d="M2157 5813 c-4 -3 -7 -15 -7 -25 0 -13 7 -18 25 -18 27 0 33 18 13
38 -14 14 -22 15 -31 5z"/>
<path d="M1934 5795 c-4 -9 -2 -21 4 -27 15 -15 44 -1 40 19 -4 23 -36 29 -44
8z"/>
<path d="M1580 5625 c-16 -19 -5 -47 17 -43 22 4 29 43 9 51 -8 3 -20 -1 -26
-8z"/>
</g>
</svg>
